<svg xmlns="http://www.w3.org/2000/svg" width="144" height="144"><path d="M27.734 27.765C21.28 34.236 16 39.998 16 40.569 16 41.863 22.246 48 23.563 48 24.87 48 48 24.745 48 23.431 48 22.137 41.754 16 40.437 16c-.533 0-6.249 5.294-12.703 11.765m66.261-.26L82.522 39.011l11.234 11.233 11.233 11.234 11.506-11.473C122.823 43.695 128 38.083 128 37.533 128 36.205 107.828 16 106.502 16c-.569 0-6.197 5.177-12.507 11.505m-52.261 14.26C35.28 48.236 30 53.998 30 54.569 30 55.863 36.246 62 37.563 62 38.87 62 62 38.745 62 37.431 62 36.137 55.754 30 54.437 30c-.533 0-6.249 5.294-12.703 11.765m23.824 10.674c-7.743 2.862-12.745 8.788-14.078 16.679-2.317 13.715 11.827 26.569 25.256 22.953 14.531-3.913 20.397-19.67 11.977-32.17-4.602-6.833-15.422-10.32-23.155-7.462m.078 13.197C59.905 71.368 63.895 81 72 81s12.095-9.632 6.364-15.364c-3.629-3.628-9.099-3.628-12.728 0M54 105v6h36V99H54v6m0 18v6h36v-12H54v6" fill="undefined" fill-rule="evenodd"/></svg>